# File created by Blade
# Date/Time:  Tue Apr 07 21:36:59 2015
# Frame Rate: 120.000 fps
#------------------------------------------------------
:FULLY-SPECIFIED
:DEGREES
748
root -5.004801 34.321829 8.670582 550.173363 -138.803277 -533.224015
Spine -9.769431 -0.320832 -2.313903
Head 1.190477 8.998112 -6.417600
LeftShoulder -24.638080 43.292530 10.046328
LeftArm 55.918623 -40.360409 -77.005879
LeftForeArm 5.113899 0.000000 13.338374
LeftHand 14.113481 -0.000000 20.639292
LeftHandThumb1 -26.253704 0.000000 33.147579
RightShoulder -4.030736 0.714739 -27.525120
RightArm 14.360848 11.267263 59.329665
RightForeArm -8.185212 -0.000000 18.200326
RightHand 12.705176 -0.000000 -15.919836
RightHandThumb1 -24.326973 -0.000000 -32.862282
LeftUpLeg -20.929100 -10.539808 1.962692
LeftLeg 28.269084 -0.000000 -0.000000
LeftFoot -9.395722 14.192193 -23.056017
LeftToeBase -10.591176 -0.000000 0.000000
RightUpLeg -17.288201 -5.617437 2.928223
RightLeg 12.124751 -0.000000 -0.000000
RightFoot 5.771609 -25.074402 0.436613
RightToeBase -21.391275 -0.000000 0.000000
749
root -5.018471 34.376699 8.649248 550.304706 -140.224226 -533.410309
Spine -9.859800 -0.632627 -2.230719
Head 1.412379 8.572108 -6.110220
LeftShoulder -24.589960 43.225279 10.128078
LeftArm 56.057832 -40.383169 -76.732028
LeftForeArm 4.978427 0.000000 13.062869
LeftHand 13.960377 -0.000000 20.586229
LeftHandThumb1 -26.253704 0.000000 33.147579
RightShoulder -4.240840 0.443696 -27.502467
RightArm 14.035178 11.474663 58.576871
RightForeArm -8.143066 -0.000000 17.969816
RightHand 12.640066 -0.000000 -15.673953
RightHandThumb1 -24.326973 -0.000000 -32.862282
LeftUpLeg -20.694951 -9.918857 1.805754
LeftLeg 28.560835 -0.000000 -0.000000
LeftFoot -9.292182 14.733359 -23.237240
LeftToeBase -9.927256 -0.000000 0.000000
RightUpLeg -16.983202 -4.920899 2.579813
RightLeg 11.888851 -0.000000 -0.000000
RightFoot 6.555183 -24.757539 0.033212
RightToeBase -21.226883 -0.000000 0.000000
750
root -5.022012 34.427965 8.624875 550.453467 -141.632590 -533.634876
Spine -9.914381 -0.953948 -2.071296
Head 1.595069 8.150761 -5.887608
LeftShoulder -24.549421 43.109693 10.173906
LeftArm 56.166633 -40.352193 -76.360626
LeftForeArm 4.886887 0.000000 12.670759
LeftHand 13.899860 -0.000000 20.451100
LeftHandThumb1 -26.253704 0.000000 33.147579
RightShoulder -4.429762 0.186237 -27.532335
RightArm 13.748221 11.686173 57.862691
RightForeArm -8.105980 -0.000000 17.671198
RightHand 12.640974 -0.000000 -15.652565
RightHandThumb1 -24.326973 -0.000000 -32.862282
LeftUpLeg -20.446339 -9.461496 1.731505
LeftLeg 28.727373 -0.000000 -0.000000
LeftFoot -9.092218 15.161775 -23.506687
LeftToeBase -9.744358 -0.000000 0.000000
RightUpLeg -16.723672 -4.153901 2.247055
RightLeg 11.709666 -0.000000 -0.000000
RightFoot 7.216112 -24.532698 -0.111945
RightToeBase -21.318510 -0.000000 0.000000
751
root -5.019174 34.476348 8.598164 550.608544 -143.000346 -533.804020
Spine -10.009776 -1.252941 -1.959607
Head 1.796066 7.749245 -5.662841
LeftShoulder -24.490757 43.021075 10.256077
LeftArm 56.361400 -40.323647 -76.080294
LeftForeArm 4.758117 -0.000000 12.217172
LeftHand 13.812285 -0.000000 20.200345
LeftHandThumb1 -26.253704 0.000000 33.147579
RightShoulder -4.593519 -0.043513 -27.542336
RightArm 13.422021 11.975206 57.163661
RightForeArm -8.121831 -0.000000 17.375046
RightHand 12.631382 -0.000000 -15.533061
RightHandThumb1 -24.326973 -0.000000 -32.862282
LeftUpLeg -20.216595 -9.082523 1.656186
LeftLeg 28.757874 -0.000000 -0.000000
LeftFoot -9.239579 15.309848 -24.436718
LeftToeBase -9.145284 -0.000000 0.000000
RightUpLeg -16.545167 -3.352820 1.881526
RightLeg 11.569847 -0.000000 -0.000000
RightFoot 7.880997 -24.286108 -0.188685
RightToeBase -21.608862 -0.000000 0.000000
752
root -5.023397 34.517928 8.577270 550.731001 -144.398397 -534.003489
Spine -10.074569 -1.583710 -1.811048
Head 2.010237 7.357736 -5.457300
LeftShoulder -24.375767 42.844788 10.400709
LeftArm 56.380143 -40.216950 -75.595323
LeftForeArm 4.508717 -0.000000 11.720973
LeftHand 13.671999 -0.000000 19.986179
LeftHandThumb1 -26.253704 0.000000 33.147579
RightShoulder -4.784941 -0.300632 -27.556485
RightArm 13.151746 12.185302 56.477733
RightForeArm -8.082154 -0.000000 17.029001
RightHand 12.634400 -0.000000 -15.494487
RightHandThumb1 -24.326973 -0.000000 -32.862282
LeftUpLeg -19.928168 -8.710347 1.618334
LeftLeg 28.722143 -0.000000 -0.000000
LeftFoot -9.367327 15.121239 -25.331100
LeftToeBase -9.062604 -0.000000 0.000000
RightUpLeg -16.279930 -2.599403 1.564422
RightLeg 11.379202 -0.000000 -0.000000
RightFoot 8.536726 -23.987614 -0.228962
RightToeBase -22.536959 -0.000000 0.000000
753
root -5.021958 34.557159 8.554341 550.907131 -145.833597 -534.253566
Spine -10.143543 -1.936235 -1.575388
Head 2.168240 6.991620 -5.314792
LeftShoulder -24.254214 42.708728 10.492656
LeftArm 56.465305 -40.124332 -75.136563
LeftForeArm 4.288214 -0.000000 11.215847
LeftHand 13.621882 -0.000000 19.588538
LeftHandThumb1 -26.253704 0.000000 33.147579
RightShoulder -4.991613 -0.478374 -27.592096
RightArm 12.822139 12.373461 55.792533
RightForeArm -8.216018 0.000000 16.672875
RightHand 12.478699 0.000000 -15.369449
RightHandThumb1 -24.326973 -0.000000 -32.862282
LeftUpLeg -19.686658 -8.399739 1.633381
LeftLeg 28.614741 -0.000000 -0.000000
LeftFoot -9.321492 14.899266 -25.821781
LeftToeBase -8.980662 -0.000000 0.000000
RightUpLeg -15.955943 -1.684549 1.251758
RightLeg 11.009078 -0.000000 -0.000000
RightFoot 9.018543 -23.842719 -0.058248
RightToeBase -22.779609 -0.000000 0.000000
754
root -5.013726 34.592795 8.541323 550.957079 -147.210912 -534.368006
Spine -10.185202 -2.274444 -1.444838
Head 2.385810 6.630117 -5.198532
LeftShoulder -24.075402 42.593275 10.631034
LeftArm 56.540677 -40.036814 -74.712447
LeftForeArm 4.206646 -0.000000 10.692210
LeftHand 13.404952 -0.000000 19.282365
LeftHandThumb1 -26.253704 0.000000 33.147579
RightShoulder -5.211413 -0.637340 -27.636984
RightArm 12.522556 12.542566 55.125359
RightForeArm -8.162117 -0.000000 16.300121
RightHand 12.510470 0.000000 -15.149233
RightHandThumb1 -24.326973 -0.000000 -32.862282
LeftUpLeg -19.299905 -8.204795 1.541342
LeftLeg 28.243443 -0.000000 -0.000000
LeftFoot -9.089018 14.617327 -26.038244
LeftToeBase -8.954272 -0.000000 0.000000
RightUpLeg -15.649745 -1.018595 0.860391
RightLeg 10.768484 -0.000000 -0.000000
RightFoot 9.438374 -23.510808 -0.040677
RightToeBase -23.139303 -0.000000 0.000000
755
root -5.012594 34.622003 8.528938 551.020286 -148.586803 -534.548938
Spine -10.220609 -2.654318 -1.262229
Head 2.607020 6.282635 -5.061956
LeftShoulder -23.962493 42.525535 10.762321
LeftArm 56.592199 -39.856784 -74.197322
LeftForeArm 4.178351 0.000000 10.158691
LeftHand 13.011867 0.000000 19.223072
LeftHandThumb1 -26.253704 0.000000 33.147579
RightShoulder -5.330539 -0.785200 -27.681981
RightArm 12.148563 12.762314 54.510348
RightForeArm -8.367258 -0.000000 15.957410
RightHand 12.582998 -0.000000 -15.230636
RightHandThumb1 -24.326973 -0.000000 -32.862282
LeftUpLeg -18.925857 -7.780829 1.492604
LeftLeg 27.890438 -0.000000 -0.000000
LeftFoot -8.476444 14.006232 -26.209769
LeftToeBase -9.210356 -0.000000 0.000000
RightUpLeg -15.289365 -0.358794 0.552765
RightLeg 10.476807 -0.000000 -0.000000
RightFoot 9.968658 -23.141375 -0.273984
RightToeBase -23.387995 -0.000000 0.000000
756
root -5.007657 34.648144 8.511017 551.114391 -150.016452 -534.741573
Spine -10.246430 -3.120639 -1.028975
Head 2.741030 5.970210 -4.971645
LeftShoulder -23.875775 42.410785 10.830130
LeftArm 56.563403 -39.676928 -73.536811
LeftForeArm 4.052890 0.000000 9.607163
LeftHand 12.850182 -0.000000 18.754548
LeftHandThumb1 -26.253704 0.000000 33.147579
RightShoulder -5.533774 -0.859791 -27.730138
RightArm 11.880451 12.934116 53.910098
RightForeArm -8.489179 0.000000 15.588156
RightHand 12.557635 -0.000000 -15.108083
RightHandThumb1 -24.326973 -0.000000 -32.862282
LeftUpLeg -18.628347 -7.542396 1.471916
LeftLeg 27.485813 -0.000000 -0.000000
LeftFoot -7.601691 13.693366 -26.381988
LeftToeBase -9.589497 -0.000000 0.000000
RightUpLeg -14.950894 0.220613 0.279945
RightLeg 10.156987 -0.000000 -0.000000
RightFoot 10.364302 -22.703433 -0.329838
RightToeBase -23.729650 -0.000000 0.000000
